# xmcd
# Track frame offsets:
# 150
# 4572
# 30408
# 45845
# 70134
# 74596
# 88152
# 102120
# 119363
# 128527
# 142854
#
# Disc length: 2136 seconds
# Revision: 0
# Processed by: cddbd v1.5.2PL0 Copyright (c) Steve Scherf et al.
# Submitted via: VisiTrax 2.11.3.279 - For more info visit www.synapsa.com
#
DISCID=8308560b
DTITLE=Ty Herndon - A Not So Silent Night
DYEAR=2003
DGENRE=Country
TTITLE0=Oh Come All Ye Faitful (short version)
TTITLE1=Silent Night
TTITLE2=Littel Drummer Boy
TTITLE3=Rudolph the Red-Nosed Reindeer
TTITLE4=Oh Holy Night
TTITLE5=Littel Town of Bethlehem
TTITLE6=A Not So Silent Night
TTITLE7=O Come O Come Emanuel
TTITLE8=Go Tell it on the Mountain
TTITLE9=Oh Come All Ye Faithful (long version)
TTITLE10=Holdin´ Onto Christmas
EXTD=
EXTT0=
EXTT1=
EXTT2=
EXTT3=
EXTT4=
EXTT5=
EXTT6=
EXTT7=
EXTT8=
EXTT9=
EXTT10=
PLAYORDER=
